HIERARCHY
ROOT Hips
{
	OFFSET -0.001795 -0.223333 0.028219
	CHANNELS 6 Xposition Yposition Zposition Zrotation Yrotation Xrotation 
	JOINT LeftUpLeg
	{
		OFFSET 0.069520 -0.091406 -0.006815
		CHANNELS 3 Zrotation Yrotation Xrotation
		JOINT LeftLeg
		{
			OFFSET 0.034277 -0.375199 -0.004496
			CHANNELS 3 Zrotation Yrotation Xrotation
			JOINT LeftFoot
			{
				OFFSET -0.013596 -0.397961 -0.043693
				CHANNELS 3 Zrotation Yrotation Xrotation
				JOINT LeftToe
				{
					OFFSET 0.026358 -0.055791 0.119288
					CHANNELS 3 Zrotation Yrotation Xrotation
					End Site
					{
						OFFSET 0.000000 0.000000 0.000000
					}
				}
			}
		}
	}
	JOINT RightUpLeg
	{
		OFFSET -0.067670 -0.090522 -0.004320
		CHANNELS 3 Zrotation Yrotation Xrotation
		JOINT RightLeg
		{
			OFFSET -0.038290 -0.382569 -0.008850
			CHANNELS 3 Zrotation Yrotation Xrotation
			JOINT RightFoot
			{
				OFFSET 0.015774 -0.398415 -0.042312
				CHANNELS 3 Zrotation Yrotation Xrotation
				JOINT RightToe
				{
					OFFSET -0.025372 -0.048144 0.123348
					CHANNELS 3 Zrotation Yrotation Xrotation
					End Site
					{
						OFFSET 0.000000 0.000000 0.000000
					}
				}
			}
		}
	}
	JOINT Spine
	{
		OFFSET -0.002533 0.108963 -0.026696
		CHANNELS 3 Zrotation Yrotation Xrotation
		JOINT Spine1
		{
			OFFSET 0.005487 0.135180 0.001092
			CHANNELS 3 Zrotation Yrotation Xrotation
			JOINT Spine2
			{
				OFFSET 0.001457 0.052922 0.025425
				CHANNELS 3 Zrotation Yrotation Xrotation
				JOINT Neck
				{
					OFFSET -0.002778 0.213870 -0.042857
					CHANNELS 3 Zrotation Yrotation Xrotation
					JOINT Head
					{
						OFFSET 0.005152 0.064970 0.051349
						CHANNELS 3 Zrotation Yrotation Xrotation
						End Site
						{
							OFFSET 0.000000 0.000000 0.000000
						}
					}
				}
				JOINT LeftShoulder
				{
					OFFSET 0.078845 0.121749 -0.034090
					CHANNELS 3 Zrotation Yrotation Xrotation
					JOINT LeftArm
					{
						OFFSET 0.090977 0.030469 -0.008868
						CHANNELS 3 Zrotation Yrotation Xrotation
						JOINT LeftForeArm
						{
							OFFSET 0.259612 -0.012772 -0.027456
							CHANNELS 3 Zrotation Yrotation Xrotation
							JOINT LeftHand
							{
								OFFSET 0.249234 0.008986 -0.001171
								CHANNELS 3 Zrotation Yrotation Xrotation
								End Site
								{
									OFFSET 0.000000 0.000000 0.000000
								}
							}
						}
					}
				}
				JOINT RightShoulder
				{
					OFFSET -0.081759 0.118833 -0.038615
					CHANNELS 3 Zrotation Yrotation Xrotation
					JOINT RightArm
					{
						OFFSET -0.096012 0.032551 -0.009143
						CHANNELS 3 Zrotation Yrotation Xrotation
						JOINT RightForeArm
						{
							OFFSET -0.253742 -0.013329 -0.021401
							CHANNELS 3 Zrotation Yrotation Xrotation
							JOINT RightHand
							{
								OFFSET -0.255298 0.007772 -0.005559
								CHANNELS 3 Zrotation Yrotation Xrotation
								End Site
								{
									OFFSET 0.000000 0.000000 0.000000
								}
							}
						}
					}
				}
			}
		}
	}
}
MOTION
Frames: 6
Frame Time: 0.050000
0.076209 0.965807 -0.040788 0.878114 5.107882 -1.435264 4.185216 -0.085796 -0.081170 -1.725973 0.187284 -0.762724 -1.770957 2.987111 13.534433 0.000000 0.000000 0.000000 -7.819617 0.107141 -1.877313 1.264558 0.172147 18.274796 -5.071387 -14.141045 13.648838 0.000000 0.000000 0.000000 -3.253394 -0.064948 5.201132 6.239137 -0.768280 -25.082593 -0.176845 -4.277618 30.582014 -3.650498 3.549535 -32.724885 0.000000 0.000000 0.000000 -7.666043 3.617870 -1.747930 -49.865304 -15.831959 -1.993346 -56.780573 -66.962841 45.623315 0.000000 0.000000 0.000000 -1.354929 5.198796 1.800920 56.316377 12.132980 -2.645450 0.227823 69.268293 5.055027 0.000000 0.000000 0.000000 
0.095375 0.967293 -0.037110 0.582021 4.643269 -1.621440 3.528097 -0.048484 0.252034 -2.295024 0.237714 -0.496824 -1.592211 3.065316 13.166461 0.000000 0.000000 0.000000 -9.280114 0.140808 -4.507605 1.901672 0.032852 24.385368 -4.969591 -14.114622 14.758392 0.000000 0.000000 0.000000 -3.628052 -0.058435 5.862220 6.428053 -0.842210 -24.844587 -0.321538 -4.757500 30.948760 -3.217045 3.199982 -32.883691 0.000000 0.000000 0.000000 -9.255592 3.696172 -1.796940 -50.892935 -11.472341 -3.885287 -42.673513 -59.400032 30.556511 0.000000 0.000000 0.000000 0.692925 4.183553 1.451638 56.423598 9.184557 -4.178739 3.103212 63.630453 5.931694 0.000000 0.000000 0.000000 
0.110205 0.970985 -0.033690 -0.145996 4.246479 -1.737024 3.468700 -0.029438 0.511171 -2.946207 0.300784 -0.441527 -1.395726 3.448305 13.474580 0.000000 0.000000 0.000000 -8.912860 0.220997 -7.521306 3.659932 -0.615856 28.994743 -6.193415 -16.294628 14.919641 0.000000 0.000000 0.000000 -3.812217 -0.063135 6.915140 7.229903 -1.053866 -24.762104 -0.839234 -5.134569 30.691400 -2.362588 2.660253 -32.888584 0.000000 0.000000 0.000000 -10.424559 4.328755 -2.088236 -52.042386 -7.425738 -5.615942 -32.329633 -52.255589 20.738083 0.000000 0.000000 0.000000 2.220459 2.995594 0.970758 57.284717 6.026892 -5.736801 7.293988 57.161182 7.168885 0.000000 0.000000 0.000000 
0.121265 0.974186 -0.030316 -0.973700 3.116365 -1.531764 3.622925 -0.007705 0.840935 -3.639773 0.378310 -1.670589 -0.248843 5.302529 14.018277 0.000000 0.000000 0.000000 -7.379181 0.430737 -10.199480 5.234658 -1.165045 31.018340 -6.571885 -16.976951 13.228737 0.000000 0.000000 0.000000 -3.466172 -0.082685 7.198849 7.194477 -1.039183 -25.019520 -0.894519 -5.806792 31.237355 -3.194084 2.862186 -33.070363 0.000000 0.000000 0.000000 -9.890409 5.461724 -2.417629 -54.330610 -3.832375 -7.320245 -25.152280 -44.989033 14.500519 0.000000 0.000000 0.000000 2.211727 2.486746 0.738556 58.375312 3.422064 -7.265546 9.732703 50.982580 7.043998 0.000000 0.000000 0.000000 
0.129094 0.975913 -0.026804 -1.353939 2.339994 -0.821061 3.350913 0.008373 1.006682 -2.994078 0.332625 -2.576448 -0.413791 4.636744 13.100856 0.000000 0.000000 0.000000 -4.817461 0.710463 -11.165082 4.964319 -0.918839 28.578370 -6.376374 -16.583048 11.199393 0.000000 0.000000 0.000000 -2.898085 -0.105194 6.984768 7.097790 -0.990268 -25.311919 -1.534731 -5.266819 31.303727 -1.739574 2.090884 -32.070662 0.000000 0.000000 0.000000 -9.987007 6.002092 -2.681531 -55.169470 -0.835378 -8.737250 -21.502531 -39.263322 10.957096 0.000000 0.000000 0.000000 3.004847 2.166210 0.573349 59.653463 1.142378 -8.535315 9.935448 45.185670 6.185002 0.000000 0.000000 0.000000 
0.134399 0.976192 -0.023228 -1.378254 2.167666 0.083402 3.118618 0.025915 1.285160 -3.176831 0.356321 -4.281813 0.226071 5.777263 13.585033 0.000000 0.000000 0.000000 -2.661084 0.843701 -10.423462 3.816601 -0.440396 24.213196 -5.699149 -15.176805 9.237612 0.000000 0.000000 0.000000 -2.797449 -0.097514 6.684495 7.290314 -1.022184 -25.413617 -2.011963 -4.679958 30.837227 -1.181148 1.835901 -30.837927 0.000000 0.000000 0.000000 -10.572458 6.248438 -2.906579 -56.658095 1.264287 -9.869096 -17.798477 -35.138000 8.314566 0.000000 0.000000 0.000000 4.383653 1.731409 0.341400 60.627239 -0.622216 -9.429142 6.151315 39.355418 3.981043 0.000000 0.000000 0.000000 
